<svg width="33" height="36" viewBox="0 0 33 36" fill="none" xmlns="http://www.w3.org/2000/svg">
<g id="Unlock">
<path id="Path" fill-rule="evenodd" clip-rule="evenodd" d="M19.9229 34H7.51474C4.46903 34 2 31.5084 2 28.4348V14.5217H25.4376V28.4348C25.4376 31.5084 22.9686 34 19.9229 34Z" stroke="#B3B1B7" stroke-width="3"/>
<path id="Path_2" d="M17.1655 14.5217V8.95652C17.1655 5.11454 20.2518 2 24.059 2V2C27.8661 2 30.9524 5.11454 30.9524 8.95652V14.5217" stroke="#B3B1B7" stroke-width="3"/>
<path id="Path_3" d="M13.7189 27.7392V27.7392C13.2955 27.7436 12.9233 27.4569 12.8159 27.0436L11.706 23.301C11.5776 22.6872 11.7295 22.0477 12.1198 21.5594C12.5101 21.0711 13.0973 20.7859 13.7189 20.7827V20.7827C14.3361 20.7872 14.9191 21.0696 15.3085 21.5528C15.698 22.0359 15.8532 22.6694 15.7318 23.2801L14.622 27.0436C14.5145 27.4569 14.1424 27.7436 13.7189 27.7392Z" fill="#B3B1B7"/>
</g>
</svg>
